<svg xmlns="http://www.w3.org/2000/svg" version="1.1" viewBox="22.22 244.72 555.36 126.28"><path d="M 356.584 251.112 C 356.904 254.625, 357.616 259.975, 358.166 263 C 358.716 266.025, 359.374 279.525, 359.629 293 C 359.883 306.475, 360.484 318.959, 360.963 320.742 C 361.442 322.525, 361.474 324.207, 361.033 324.479 C 360.593 324.752, 360.244 331.341, 360.258 339.123 C 360.279 350.446, 360.516 352.839, 361.444 351.105 C 362.082 349.913, 362.875 349.209, 363.207 349.540 C 363.538 349.872, 364.135 348.648, 364.532 346.822 C 364.930 344.995, 365.673 342.390, 366.185 341.034 C 366.940 339.033, 367.290 338.844, 368.042 340.034 C 368.552 340.840, 368.983 342.625, 369 344 C 369.048 347.938, 370.499 349.660, 372.424 348.063 C 373.802 346.920, 374 347.148, 374 349.878 C 374 354.352, 375.986 353.751, 376.070 349.250 C 376.137 345.706, 377.780 340.015, 377.930 342.809 C 378.050 345.047, 379.712 343.191, 380.323 340.136 C 380.819 337.655, 381.459 337.163, 384.702 336.770 C 388.922 336.259, 389.962 337.141, 389.985 341.250 C 389.993 342.762, 390.450 344, 391 344 C 391.550 344, 392 343.100, 392 342 C 392 340.900, 392.482 340, 393.072 340 C 393.661 340, 394.061 341.012, 393.961 342.250 C 393.571 347.062, 394.033 355.300, 394.658 354.675 C 395.020 354.313, 395.920 354.519, 396.658 355.131 C 398.235 356.440, 398.437 354.973, 398.037 345.123 C 397.856 340.647, 398.110 338.950, 398.889 339.432 C 399.594 339.867, 400 339.172, 400 337.528 C 400 336.103, 400.683 334.675, 401.517 334.355 C 402.778 333.871, 402.941 332.230, 402.483 324.636 C 401.592 309.859, 400.702 307.451, 398 312.500 C 397.106 314.171, 395.806 315.002, 394.081 315.007 C 392.661 315.011, 388.526 315.295, 384.891 315.639 C 378.448 316.247, 378.267 316.200, 377.653 313.755 C 377.307 312.375, 377.448 307.929, 377.967 303.873 C 378.615 298.811, 378.569 295.541, 377.823 293.439 C 377.019 291.178, 377.117 285.594, 378.199 272.049 C 379.420 256.759, 379.956 253.505, 381.432 252.426 C 383.768 250.718, 382.581 249, 379.063 249 C 377.513 249, 374.673 248.344, 372.753 247.541 C 370.833 246.739, 366.278 245.777, 362.632 245.403 L 356.002 244.724 356.584 251.112 M 24.191 250.730 C 24.758 252.782, 24.966 256.720, 24.655 259.480 C 24.253 263.048, 24.510 265.062, 25.545 266.441 C 26.345 267.509, 27 270.123, 27 272.250 C 27 274.574, 27.399 275.871, 28 275.500 C 28.598 275.130, 29.013 276.413, 29.033 278.691 L 29.067 282.500 31.033 280.139 C 32.115 278.841, 33.006 276.816, 33.014 275.639 C 33.042 271.240, 34.211 268.822, 36.073 269.309 C 37.062 269.567, 38.724 269.181, 39.768 268.450 C 41.334 267.353, 42.521 267.347, 46.582 268.418 C 49.287 269.131, 51.393 270.211, 51.263 270.819 C 51.132 271.426, 49.166 274.961, 46.893 278.675 C 44.620 282.388, 42.665 285.893, 42.549 286.463 C 41.503 291.581, 39.425 296.752, 36.924 300.458 C 35.278 302.897, 32.578 308.173, 30.925 312.183 C 29.271 316.193, 27.052 320.941, 25.993 322.736 C 24.935 324.530, 23.897 327.011, 23.688 328.249 C 23.479 329.487, 23.020 331.175, 22.669 332 C 22.318 332.825, 22.136 335.975, 22.265 339 L 22.500 344.500 27.296 344.807 C 32.963 345.169, 34 346.842, 34 355.624 C 34 361.222, 35.274 362.096, 36.949 357.648 C 37.536 356.088, 37.960 357.620, 38.496 363.250 C 38.903 367.512, 39.643 371, 40.142 371 C 41.654 371, 43 366.171, 43 360.751 C 43 357.935, 43.725 353.048, 44.611 349.891 C 45.920 345.223, 46.761 343.927, 49.111 342.954 C 51.353 342.025, 52.325 342.025, 53.442 342.952 C 54.589 343.904, 55.497 343.692, 57.902 341.915 C 61.307 339.397, 66.543 338.451, 67.601 340.163 C 68.250 341.213, 68.414 342.367, 68.843 348.872 C 68.973 350.843, 69.250 351.038, 70.473 350.022 C 71.646 349.049, 71.915 346.182, 71.795 335.940 L 71.645 323.080 67.072 323.125 C 64.558 323.149, 58.243 323.787, 53.041 324.542 C 47.838 325.297, 43.412 325.745, 43.204 325.537 C 42.725 325.059, 49.055 307.945, 50.354 306.204 C 50.885 305.492, 51.900 305.131, 52.609 305.403 C 53.810 305.864, 55.661 302.491, 55.185 300.709 C 54.855 299.477, 56.960 296, 58.035 296 C 58.566 296, 59 296.675, 59 297.500 C 59 298.325, 59.398 299, 59.883 299 C 60.920 299, 61.962 295.552, 61.999 292 C 62.028 289.189, 68.113 274.668, 70.320 272.142 C 72.031 270.185, 73.335 262.184, 72.492 258.823 C 71.840 256.228, 71.435 256.115, 47.500 251.888 C 41.450 250.820, 34.803 249.283, 32.730 248.473 C 30.656 247.663, 27.655 247, 26.060 247 C 23.196 247, 23.173 247.044, 24.191 250.730 M 510 252.753 C 496.774 253.199, 498.011 251.147, 497.929 272.769 L 497.859 291.500 496.048 287.432 C 492.958 280.491, 488.899 267.795, 487.634 261.114 L 486.424 254.728 479.962 254.492 C 476.408 254.361, 472.192 253.906, 470.594 253.480 L 467.688 252.705 468.355 257.576 C 468.722 260.254, 468.349 270.108, 467.525 279.473 C 463.492 325.336, 462.913 336.436, 464.496 337.608 C 465.320 338.217, 466.276 340.129, 466.622 341.858 C 467.431 345.905, 468.716 345.861, 469.800 341.750 C 470.613 338.668, 470.694 338.809, 471.385 344.500 C 471.786 347.800, 472.727 351.850, 473.476 353.500 L 474.838 356.500 474.954 353.500 C 475.018 351.850, 475.714 349.375, 476.500 348 C 477.286 346.625, 477.945 343.348, 477.965 340.718 C 477.984 338.088, 478.636 334.414, 479.413 332.554 C 480.308 330.411, 480.667 327.035, 480.391 323.336 C 480.152 320.126, 480.529 311.964, 481.228 305.199 L 482.500 292.897 487.736 304.846 C 493.524 318.054, 496.325 327.400, 495.385 330.363 C 494.910 331.859, 495.138 332.161, 496.385 331.683 C 497.596 331.218, 498 331.665, 498 333.472 C 498 336.686, 499.799 337.641, 501.535 335.350 C 502.810 333.666, 502.939 333.871, 502.968 337.628 C 502.986 339.898, 503.626 342.275, 504.391 342.910 C 505.156 343.545, 506.088 346.102, 506.462 348.592 C 507.839 357.777, 510.675 350.800, 510.912 337.643 C 510.978 334, 511.337 332.915, 512.350 333.304 C 513.401 333.707, 513.698 332.346, 513.690 327.161 C 513.684 323.498, 514.039 311.725, 514.478 301 C 514.917 290.275, 515.425 275.937, 515.608 269.138 C 515.802 261.956, 516.412 256.208, 517.065 255.422 C 519.055 253.024, 517.654 252.495, 510 252.753 M 100.143 253.683 C 98.847 253.949, 94.825 256.342, 91.206 258.999 C 84.813 263.694, 84.547 264.068, 81.860 272.166 C 79.130 280.397, 79.103 280.729, 79.673 299 C 80.235 317.019, 80.325 317.633, 83.125 322.622 C 84.706 325.439, 86 328.476, 86 329.372 C 86 330.267, 86.422 331, 86.939 331 C 87.818 331, 89.662 339.520, 89.174 341.324 C 89.051 341.778, 89.412 341.864, 89.975 341.515 C 90.539 341.167, 91.007 339.896, 91.015 338.691 C 91.024 337.486, 91.443 335.848, 91.947 335.052 C 92.981 333.417, 93.054 333.674, 95.054 346 C 96.098 352.431, 96.403 353.144, 97.200 351 C 97.711 349.625, 97.938 347.488, 97.703 346.250 C 97.469 345.012, 97.665 344, 98.139 344 C 98.612 344, 99.007 342.988, 99.015 341.750 C 99.048 336.983, 100.734 336.738, 101.433 341.399 C 102.284 347.074, 103.762 347.340, 104.620 341.974 C 105.184 338.449, 105.527 338.029, 107.382 338.597 C 108.547 338.953, 110.031 339.669, 110.680 340.187 C 111.479 340.825, 112.195 340.505, 112.895 339.196 C 113.464 338.133, 113.660 336.993, 113.329 336.663 C 112.553 335.887, 115.741 331, 117.023 331 C 117.560 331, 118 333.194, 118 335.875 C 118 342.484, 119.030 347.159, 120.383 346.695 C 121.103 346.448, 121.376 343.967, 121.152 339.707 C 120.828 333.570, 121.086 332.586, 124.804 325.802 C 129.747 316.782, 132.454 307.423, 131.715 301.914 C 131.414 299.667, 131.563 293.649, 132.046 288.541 L 132.924 279.255 128.574 270.377 C 126.182 265.495, 123.370 260.730, 122.326 259.788 C 117.757 255.669, 106.100 252.461, 100.143 253.683 M 273.750 253.742 C 271.194 254.105, 269.684 257, 272.051 257 C 274.829 257, 275.735 263.751, 275.876 285.500 C 275.954 297.600, 276.127 312.315, 276.259 318.199 C 276.428 325.705, 276.127 329.271, 275.250 330.149 C 273.453 331.947, 273.708 333, 275.941 333 C 277.009 333, 278.148 333.430, 278.473 333.956 C 278.798 334.482, 279.663 334.683, 280.395 334.402 C 281.313 334.050, 281.981 335.229, 282.543 338.195 C 282.992 340.563, 283.452 342.950, 283.564 343.500 C 283.677 344.050, 283.821 345.288, 283.885 346.250 C 284.142 350.156, 285.861 347.607, 287.070 341.526 C 288.061 336.538, 288.644 335.290, 289.609 336.090 C 290.522 336.848, 291.160 336.570, 291.965 335.065 C 292.590 333.898, 294.070 333, 295.369 333 C 298.861 333, 299.198 331.943, 296.406 329.747 C 293.911 327.785, 293.886 327.621, 294.400 316.630 C 294.686 310.509, 294.957 304.375, 295.002 303 C 295.047 301.625, 294.798 294.650, 294.448 287.500 C 293.652 271.223, 293.659 272.344, 294.325 267 C 294.633 264.525, 294.911 261.262, 294.943 259.750 C 294.990 257.499, 295.453 257, 297.500 257 C 299.273 257, 300 256.458, 300 255.134 C 300 253.417, 299.066 253.272, 288.250 253.310 C 281.788 253.333, 275.262 253.527, 273.750 253.742 M 422.071 257.710 C 419.234 268.932, 418.872 270.625, 419.114 271.538 C 419.254 272.067, 418.795 275.131, 418.093 278.347 C 417.392 281.564, 417.025 284.987, 417.278 285.955 C 417.531 286.924, 417.312 288.478, 416.791 289.409 C 416.270 290.340, 414.754 296.817, 413.421 303.801 C 411.411 314.342, 408.432 327.887, 405.515 339.750 C 404.813 342.607, 407.583 342.888, 408.484 340.051 C 409.133 338.006, 412.149 338.282, 411.899 340.364 C 411.225 345.991, 413.487 344.306, 414.984 338.067 C 415.850 334.455, 416.556 333.276, 417.608 333.680 C 418.670 334.087, 418.879 335.184, 418.407 337.866 C 417.798 341.325, 417.853 341.418, 419.544 339.803 C 420.684 338.716, 422.442 332.972, 424.444 323.803 L 427.565 309.500 433.870 309.414 C 441.259 309.314, 440.984 308.928, 442.999 322.250 C 443.727 327.063, 444.700 331, 445.161 331 C 445.623 331, 446 330.178, 446 329.173 C 446 327.735, 446.604 327.435, 448.840 327.763 C 451.522 328.157, 451.663 327.995, 451.376 324.840 C 451.168 322.561, 451.494 323.129, 452.401 326.627 C 453.925 332.506, 454.690 334, 456.173 334 C 456.787 334, 457.034 332.683, 456.764 330.846 C 456.374 328.189, 456.492 327.952, 457.511 329.346 C 459.486 332.047, 460.061 331.261, 459.411 326.750 C 458.035 317.197, 455.036 301.144, 453.621 295.756 C 452.791 292.597, 452.277 289.155, 452.479 288.109 C 452.681 287.062, 451.745 281.996, 450.399 276.853 C 449.053 271.709, 447.671 264.230, 447.328 260.232 L 446.704 252.965 443.102 253.722 C 438.519 254.685, 433.724 254.677, 427.891 253.695 L 423.282 252.920 422.071 257.710 M 139 255.573 C 139 256.358, 139.616 257, 140.369 257 C 142.845 257, 143.909 271.374, 142.033 279.466 C 141.473 281.881, 141.473 283.865, 142.034 284.541 C 142.566 285.181, 142.702 291.970, 142.357 300.576 C 142.028 308.784, 141.846 318.564, 141.953 322.309 C 142.064 326.220, 141.662 329.702, 141.009 330.489 C 139.522 332.281, 142.973 334.261, 146.805 333.814 C 149.095 333.547, 149.548 333.913, 149.816 336.250 C 150.245 339.972, 151.750 339.720, 152.811 335.750 L 153.680 332.500 154.278 335.500 C 154.606 337.150, 155.182 341.200, 155.556 344.500 C 156.364 351.624, 157.362 349.983, 158.445 339.750 C 158.838 336.038, 159.589 333, 160.115 333 C 160.701 333, 160.723 332.323, 160.171 331.250 C 158.154 327.328, 157.191 295.797, 158.819 287 L 159.652 282.500 160.446 290 C 160.882 294.125, 161.652 297.762, 162.156 298.081 C 162.660 298.401, 164.105 304.251, 165.366 311.081 C 167.752 323.998, 169.171 328, 171.367 328 C 173.168 328, 178.623 319.239, 179.460 315 C 179.840 313.075, 180.750 308.800, 181.481 305.500 C 182.213 302.200, 183.591 295.900, 184.543 291.500 C 185.496 287.100, 186.607 282.869, 187.012 282.099 C 187.417 281.328, 187.985 287.628, 188.275 296.099 C 188.604 305.741, 189.363 313.218, 190.306 316.094 C 191.243 318.954, 191.475 321.219, 190.921 322.094 C 190.431 322.867, 190.024 325.097, 190.015 327.050 C 190.007 329.002, 189.460 331.140, 188.800 331.800 C 187.867 332.733, 188.081 333, 189.765 333 C 192.483 333, 193.547 335.047, 194.430 341.975 C 195.106 347.273, 196.347 350, 198.082 350 C 198.542 350, 199.050 346.347, 199.210 341.882 L 199.500 333.763 203.271 333.428 C 208.668 332.947, 209.487 332.161, 207.212 329.645 C 205.514 327.767, 205.255 325.831, 205.128 314.079 C 205.049 306.698, 204.549 297.923, 204.018 294.579 C 203.487 291.236, 203.067 284.104, 203.085 278.731 C 203.102 273.357, 202.809 266.907, 202.432 264.397 C 201.874 260.676, 202.122 259.326, 203.775 257.091 L 205.801 254.349 192.901 254.425 C 185.806 254.466, 179.997 254.500, 179.994 254.500 C 179.725 254.500, 176.011 278.342, 176.007 280.096 C 176.003 281.524, 175.234 284.224, 174.298 286.096 L 172.595 289.500 171.287 285 C 170.567 282.525, 169.550 277.575, 169.028 274 C 167.464 263.297, 166.167 255.831, 165.824 255.543 C 165.646 255.394, 159.537 255.018, 152.250 254.709 C 141.176 254.238, 139 254.380, 139 255.573 M 220.754 268.820 C 220.948 276.894, 221.109 284.325, 221.110 285.332 C 221.111 286.340, 220.628 290.390, 220.037 294.332 C 219.446 298.275, 218.939 306.675, 218.909 313 C 218.857 323.977, 217.784 330, 215.879 330 C 215.395 330, 215 330.900, 215 332 C 215 333.613, 215.667 334, 218.441 334 C 222.537 334, 223.364 335.070, 223.167 340.106 C 223.085 342.189, 223.464 344.169, 224.009 344.506 C 224.554 344.843, 225.007 344.079, 225.015 342.809 C 225.024 341.539, 225.467 339.825, 226 339 C 226.771 337.807, 226.973 338.001, 226.985 339.950 C 227.006 343.299, 228.755 341.341, 229.173 337.500 C 229.456 334.906, 229.906 334.500, 232.500 334.500 L 235.500 334.500 236.034 342.701 C 236.327 347.211, 236.829 351.162, 237.148 351.481 C 237.467 351.800, 238.256 349.235, 238.902 345.781 C 241.238 333.280, 241.058 333.803, 242.589 335.074 C 243.613 335.923, 245.094 335.966, 247.999 335.228 C 250.926 334.485, 252.001 334.520, 252.006 335.356 C 252.015 337.308, 254.122 344.211, 254.571 343.762 C 254.805 343.528, 255.277 340.674, 255.620 337.419 C 256.229 331.632, 257.507 328.577, 258.945 329.466 C 260.462 330.404, 263 319.094, 263 311.394 C 263 304.583, 262.647 302.945, 260.500 299.785 C 257.795 295.805, 257.245 290.933, 259.262 288.821 C 260.827 287.183, 263.991 277.324, 263.204 276.538 C 262.888 276.221, 262.506 273.254, 262.356 269.944 C 262.018 262.480, 259.482 258.564, 253.259 255.897 C 249.514 254.291, 246.480 253.993, 234.594 254.060 L 220.400 254.139 220.754 268.820 M 309.818 256.182 C 308.335 257.665, 308.008 258.853, 308.539 260.837 C 308.931 262.301, 309.163 264.175, 309.056 265 C 308.834 266.705, 308.762 294.239, 308.904 322.750 C 308.957 333.337, 309.389 342, 309.864 342 C 310.339 342, 311.502 339.975, 312.447 337.500 C 313.392 335.025, 314.430 333, 314.754 333 C 315.078 333, 316.202 333.778, 317.253 334.729 C 319.070 336.373, 319.219 336.361, 320.279 334.479 C 321.278 332.704, 321.516 332.963, 322.588 337 L 323.783 341.500 325.101 338.277 C 326.665 334.449, 329.075 333.056, 328.731 336.178 C 328.604 337.334, 329.063 338.479, 329.750 338.723 C 330.438 338.967, 331 338.486, 331 337.655 C 331 335.250, 333.895 333, 336.991 333 C 339.520 333, 340.025 333.559, 341.496 337.988 C 343.631 344.417, 345 345.200, 345 339.993 C 345 337.725, 345.399 335.111, 345.887 334.184 C 346.375 333.258, 346.937 328.900, 347.137 324.500 L 347.500 316.500 337 316.500 L 326.500 316.500 326.214 306.750 C 326.025 300.326, 326.292 297, 326.995 297 C 327.582 297, 328.322 297.675, 328.638 298.500 C 329.370 300.407, 331 300.455, 331 298.570 C 331 297.783, 332.012 296.995, 333.250 296.820 C 335.240 296.537, 335.500 295.923, 335.500 291.518 L 335.500 286.535 330.417 286.430 C 327.621 286.372, 324.779 285.981, 324.101 285.562 C 323.233 285.026, 322.961 282.191, 323.184 275.996 C 323.441 268.825, 323.746 267.394, 324.826 268.281 C 325.803 269.084, 326.376 269.010, 326.999 268.001 C 327.583 267.056, 327.947 267.696, 328.173 270.066 C 328.577 274.309, 330.393 274.590, 330.797 270.472 L 331.094 267.444 337.498 267.474 C 341.247 267.491, 344.420 268.020, 345.151 268.751 C 347.519 271.119, 348 269.974, 348 261.979 L 348 253.957 329.904 254.074 C 313.257 254.182, 311.650 254.350, 309.818 256.182 M 529.958 255.921 C 531.383 258.584, 529.737 306.847, 527.986 313.750 C 527.532 315.538, 527.528 317, 527.976 317 C 528.424 317, 528.582 319.587, 528.327 322.750 C 527.950 327.425, 527.370 328.912, 525.221 330.706 C 522.016 333.381, 522.344 333.821, 527.780 334.142 L 532 334.391 532 340.662 C 532 346.660, 534.303 354, 536.185 354 C 536.633 354, 537.003 350.962, 537.006 347.250 C 537.009 343.538, 537.480 338.813, 538.053 336.750 C 539.063 333.110, 541.180 331.864, 542.559 334.096 C 542.984 334.784, 544.818 334.954, 547.485 334.555 C 551.635 333.932, 551.748 333.991, 552.367 337.084 C 552.715 338.825, 553 341.732, 553 343.543 C 553 345.354, 553.273 347.548, 553.607 348.418 C 554.838 351.626, 556 349.852, 556.011 344.750 C 556.029 335.981, 556.977 332.332, 559.537 331.165 C 562.264 329.923, 564.426 331.726, 563.404 334.389 C 562.583 336.530, 563.893 347, 564.982 347 C 565.443 347, 566.097 343.063, 566.434 338.250 C 567.128 328.345, 568.116 324.389, 569.805 324.744 C 570.443 324.878, 571.229 323.753, 571.552 322.244 C 571.875 320.735, 572.874 317.475, 573.772 315 C 577.076 305.899, 578.533 289.567, 576.920 279.719 C 575.786 272.796, 572.451 265.251, 568.771 261.284 C 565.247 257.485, 555.838 255.147, 541.724 254.562 C 529.426 254.053, 528.985 254.104, 529.958 255.921 M 545.489 269.891 C 545.195 270.656, 544.670 282.070, 544.323 295.255 L 543.691 319.228 548.095 318.496 C 550.518 318.093, 553.733 317.132, 555.240 316.361 C 558.771 314.554, 562 308.191, 562 303.040 C 562 300.818, 562.337 299, 562.750 299.001 C 564.431 299.003, 562.374 282.700, 559.847 276 C 559.329 274.625, 557.751 272.654, 556.342 271.620 C 554.221 270.064, 553.625 269.978, 552.889 271.120 C 552.192 272.202, 551.873 272.038, 551.412 270.361 C 550.740 267.913, 546.382 267.567, 545.489 269.891 M 235 278.083 L 235 287 237.935 287 C 245.544 287, 250.204 281.378, 248.429 274.338 C 247.446 270.437, 245.022 268.566, 244.968 271.667 C 244.938 273.421, 244.875 273.419, 243.508 271.614 C 242.687 270.529, 240.577 269.609, 238.540 269.447 L 235 269.166 235 278.083 M 99.607 272.582 C 99.273 273.452, 99 277.727, 99 282.082 C 99 286.694, 98.582 290, 98 290 C 97.450 290, 97 289.380, 97 288.622 C 97 287.865, 96.365 286.718, 95.590 286.075 C 94.445 285.124, 94.061 285.444, 93.549 287.778 C 93.092 289.858, 93.616 291.873, 95.447 295.076 C 96.838 297.509, 97.981 300.711, 97.988 302.191 C 97.995 303.671, 98.489 305.184, 99.087 305.554 C 99.741 305.958, 100.040 308.665, 99.837 312.363 C 99.531 317.929, 99.686 318.506, 101.500 318.562 C 102.600 318.596, 104.289 318.982, 105.252 319.419 C 106.216 319.857, 108.132 319.933, 109.511 319.587 C 111.856 318.998, 111.968 318.686, 111.258 314.729 C 109.292 303.764, 111.433 294.953, 117.302 289.851 C 122.083 285.696, 121.859 283.899, 116.933 286.894 C 115.123 287.995, 113.280 288.673, 112.839 288.401 C 112.398 288.128, 113.421 285.451, 115.114 282.452 C 118.921 275.706, 116.857 274.932, 112.672 281.537 C 110.008 285.740, 108 287.233, 108 285.011 C 108 284.467, 108.900 281.654, 109.999 278.761 C 112.287 272.742, 112.394 272, 110.971 272 C 110.406 272, 108.765 274.716, 107.326 278.035 C 105.886 281.354, 104.212 283.906, 103.604 283.705 C 102.997 283.505, 102.366 280.564, 102.202 277.171 C 101.914 271.195, 100.856 269.326, 99.607 272.582 M 434.606 279.585 C 433.236 283.155, 430.941 296.096, 431.514 297.023 C 431.846 297.560, 433.718 298, 435.673 298 C 439.010 298, 439.195 297.832, 438.705 295.250 C 438.418 293.738, 437.644 289.350, 436.986 285.500 C 435.634 277.597, 435.498 277.259, 434.606 279.585 M 237 299.895 C 237 300.468, 236.361 300.692, 235.580 300.392 C 234.408 299.943, 234.190 301.497, 234.330 309.286 L 234.500 318.724 241 318.206 C 249.061 317.565, 250.191 316.378, 249.684 309.084 C 249.397 304.948, 248.773 303.234, 247.043 301.834 C 243.886 299.277, 243 299.532, 243 303 C 243 307.037, 241.208 306.838, 240.813 302.758 C 240.607 300.623, 239.903 299.403, 238.750 299.185 C 237.787 299.003, 237 299.322, 237 299.895" stroke="none" fill="#fffcfc" fill-rule="evenodd"/><path d="" stroke="none" fill="#fcfcfc" fill-rule="evenodd"/></svg>