<?xml version="1.0" encoding="UTF-8"?>
<svg version="1.1" xmlns="http://www.w3.org/2000/svg" width="554" height="619">
<path d="M0 0 C29.64871697 27.51590518 37.26114019 66.47659891 39.375 105.25 C39.62966282 113.25220961 39.59972411 121.24751676 39.375 129.25 C40.11878906 129.36214844 40.86257813 129.47429687 41.62890625 129.58984375 C48.46389107 131.23296243 53.13841033 136.74527276 57.1484375 142.22265625 C62.20537468 150.58109701 63.05000786 161.65314913 62.375 171.25 C62.29507812 172.44367188 62.21515625 173.63734375 62.1328125 174.8671875 C60.92157803 189.00343255 56.20718202 200.80097005 46.375 211.25 C45.75882812 211.91902344 45.14265625 212.58804688 44.5078125 213.27734375 C38.34339808 219.32665499 30.27662562 222.45398071 21.625 222.5 C20.5525 222.4175 19.48 222.335 18.375 222.25 C18.36082031 222.91902344 18.34664063 223.58804687 18.33203125 224.27734375 C16.9328963 252.44911514 1.35185538 279.77552409 -19.1328125 298.57836914 C-45.30557574 321.45898675 -79.68539526 328.88261202 -113.625 327.25 C-145.68988756 324.57991715 -172.13342944 309.01770218 -193.24609375 285.26171875 C-197.68509576 279.64189847 -201.19131733 273.51953666 -204.625 267.25 C-205.47578125 265.71666016 -205.47578125 265.71666016 -206.34375 264.15234375 C-212.87614531 251.77078835 -218.625 236.39760702 -218.625 222.25 C-220.0790625 222.3428125 -220.0790625 222.3428125 -221.5625 222.4375 C-230.79719117 222.3817574 -238.97653569 217.67031882 -245.53515625 211.43359375 C-258.25451855 197.59604576 -262.81128976 180.77414671 -262.58984375 162.3203125 C-261.95958396 150.91099418 -258.16740511 141.94456341 -249.625 134.25 C-245.85683662 131.45101444 -242.23607381 130.06695345 -237.625 129.25 C-237.73871948 128.29601318 -237.73871948 128.29601318 -237.85473633 127.32275391 C-238.66597243 119.70519903 -238.62774188 112.27197198 -238.3125 104.625 C-238.23974854 102.77612183 -238.23974854 102.77612183 -238.16552734 100.88989258 C-236.35112517 59.1065675 -224.6322117 23.58640001 -193.6875 -5.625 C-139.99838313 -51.70599725 -51.30367383 -46.21533404 0 0 Z M-185.625 24.4375 C-186.87518619 27.13265296 -186.87518619 27.13265296 -186.0625 29.5078125 C-184.12013933 33.21307661 -181.50812583 35.93537724 -178.625 38.9375 C-178.0784375 39.51822266 -177.531875 40.09894531 -176.96875 40.69726562 C-174.88164867 42.90969534 -172.7757088 45.0992912 -170.625 47.25 C-170.64432331 51.00516419 -171.61634495 52.24076882 -174.20703125 55.00390625 C-175.27372064 55.951634 -176.35096162 56.88759543 -177.4375 57.8125 C-178.50716627 58.75055474 -179.5761893 59.68934353 -180.64453125 60.62890625 C-181.62808594 61.49386719 -182.61164063 62.35882813 -183.625 63.25 C-184.97149026 64.57004528 -186.31089447 65.89771223 -187.625 67.25 C-192.44706791 65.4459793 -195.26727636 61.33131075 -198.47070312 57.50585938 C-200.62732817 55.03641842 -202.19518498 53.39844767 -205.328125 52.31640625 C-207.69321991 52.0858588 -207.69321991 52.0858588 -209.9375 53.25 C-211.88351227 55.23903692 -211.88351227 55.23903692 -212.3125 58.4375 C-211.23849448 64.39334881 -207.37007628 67.73755731 -203.01171875 71.7265625 C-201.625 73 -201.625 73 -199.625 75.25 C-199.96625883 78.4853962 -201.23991715 80.30479156 -203.375 82.6875 C-203.91253906 83.29078125 -204.45007813 83.8940625 -205.00390625 84.515625 C-207.15484098 86.81686601 -209.39781126 89.02281126 -211.625 91.25 C-213.53756712 93.13077873 -213.53756712 93.13077873 -214.625 95.25 C-214.38425978 98.62036311 -214.03701979 99.83798021 -211.625 102.25 C-207.36366541 102.31211858 -205.13281368 101.08303742 -202.1171875 98.2734375 C-200.89965412 97.06910948 -199.69414135 95.85252595 -198.5 94.625 C-197.30050916 93.39240219 -196.08998637 92.17041612 -194.8671875 90.9609375 C-194.3397998 90.41743652 -193.81241211 89.87393555 -193.26904297 89.31396484 C-191.625 88.25 -191.625 88.25 -189.55664062 88.46020508 C-186.79526702 89.58925508 -185.27578046 91.39100551 -183.25 93.5625 C-177.58890193 99.88082584 -177.58890193 99.88082584 -169.875 102.3125 C-167.44749977 101.40260956 -167.44749977 101.40260956 -166.125 99 C-165.33803383 96.19384051 -165.33803383 96.19384051 -166.875 93.625 C-167.4525 92.84125 -168.03 92.0575 -168.625 91.25 C-169.285 90.26 -169.945 89.27 -170.625 88.25 C-171.285 88.25 -171.945 88.25 -172.625 88.25 C-172.851875 87.693125 -173.07875 87.13625 -173.3125 86.5625 C-174.60248266 84.01981118 -174.60248266 84.01981118 -177.3125 81.75 C-179.625 79.25 -179.625 79.25 -179.625 77.43359375 C-178.13089587 74.17107731 -175.59223147 72.1294145 -172.9375 69.8125 C-172.41994141 69.34779297 -171.90238281 68.88308594 -171.36914062 68.40429688 C-167.85716215 65.26844561 -164.25460417 62.24836866 -160.625 59.25 C-159.53981889 60.16447846 -158.45695262 61.08170407 -157.375 62 C-156.40820312 62.81597656 -156.40820312 62.81597656 -155.421875 63.6484375 C-153.625 65.25 -153.625 65.25 -151.625 67.625 C-149.57909108 69.58228613 -149.57909108 69.58228613 -146 69.6875 C-144.88625 69.543125 -143.7725 69.39875 -142.625 69.25 C-140.25807034 66.40173402 -140.25807034 66.40173402 -141 63.0625 C-141.309375 61.6703125 -141.309375 61.6703125 -141.625 60.25 C-142.285 60.25 -142.945 60.25 -143.625 60.25 C-143.8725 59.6725 -144.12 59.095 -144.375 58.5 C-145.80799988 55.92060021 -147.40924676 54.18878408 -149.625 52.25 C-150.285 52.25 -150.945 52.25 -151.625 52.25 C-148.66250349 48.17656729 -145.24140648 45.04433834 -141.4296875 41.80078125 C-138.21936998 39.19601341 -138.21936998 39.19601341 -137.3125 35.25 C-137.415625 34.26 -137.51875 33.27 -137.625 32.25 C-141.5564103 29.6290598 -142.94286854 29.43248498 -147.625 30.25 C-150.34800424 32.43774912 -152.76888736 34.76955114 -155.1953125 37.28125 C-157.625 39.25 -157.625 39.25 -160.4296875 39.53125 C-161.15414062 39.4384375 -161.87859375 39.345625 -162.625 39.25 C-162.89666992 38.65670898 -163.16833984 38.06341797 -163.44824219 37.45214844 C-165.33470862 33.92187308 -168.08732451 31.33756678 -170.875 28.5 C-171.43574219 27.89800781 -171.99648437 27.29601562 -172.57421875 26.67578125 C-175.40679257 23.7908735 -176.83615736 22.37617744 -180.921875 21.72265625 C-183.80012725 22.0058234 -183.80012725 22.0058234 -185.625 24.4375 Z M-84.875 107.2109375 C-92.50129946 116.09693821 -94.9832124 125.78919314 -94.5 137.25 C-93.52746457 147.56781844 -89.57462221 154.93752783 -83.625 163.25 C-82.965 164.24 -82.305 165.23 -81.625 166.25 C-80.965 166.25 -80.305 166.25 -79.625 166.25 C-79.398125 166.83910156 -79.17125 167.42820312 -78.9375 168.03515625 C-76.27847494 172.52226104 -71.02732029 174.68246064 -66.625 177.25 C-65.44357422 177.97123047 -65.44357422 177.97123047 -64.23828125 178.70703125 C-51.35047381 185.94958518 -36.16150664 186.42252296 -22.046875 183.2421875 C-17.43385046 181.90462102 -13.59999843 179.90877378 -9.625 177.25 C-8.635 176.59 -7.645 175.93 -6.625 175.25 C-6.625 174.59 -6.625 173.93 -6.625 173.25 C-5.965 173.25 -5.305 173.25 -4.625 173.25 C-4.625 172.59 -4.625 171.93 -4.625 171.25 C-3.965 171.25 -3.305 171.25 -2.625 171.25 C-1.29967939 168.73521169 0.01020231 166.21418013 1.3125 163.6875 C1.68568359 162.98302734 2.05886719 162.27855469 2.44335938 161.55273438 C8.03329279 150.62466635 7.66333792 137.73363741 4.33984375 126.09375 C-0.14571922 112.87314336 -7.90010174 104.95676695 -20.3515625 98.6875 C-27.83624475 95.40067056 -35.48004356 93.70633882 -43.625 93.25 C-44.47707031 93.19714844 -45.32914063 93.14429688 -46.20703125 93.08984375 C-60.21115801 92.62904988 -74.59436387 97.48716916 -84.875 107.2109375 Z M-104.625 166.25 C-109.45204977 173.2565033 -112.96682227 180.95107845 -116.4375 188.6875 C-116.92669922 189.76193359 -117.41589844 190.83636719 -117.91992188 191.94335938 C-121.52245737 199.5203896 -121.52245737 199.5203896 -122.9375 207.6875 C-122.97488281 208.44933594 -123.01226562 209.21117187 -123.05078125 209.99609375 C-122.43592105 213.25090417 -121.25838669 214.26135345 -118.625 216.25 C-116.03281465 217.17700668 -113.66243513 217.89577704 -111 218.5 C-110.2879541 218.66693359 -109.5759082 218.83386719 -108.84228516 219.00585938 C-98.68181187 221.3516902 -98.68181187 221.3516902 -89.0625 218.375 C-85.81260561 215.54175873 -85.68633443 214.86334429 -85.25 210.5 C-85.49700422 197.53227833 -93.48057864 185.36825114 -99.52050781 174.30078125 C-100.94977153 171.64697593 -102.29794884 168.95614354 -103.625 166.25 C-103.955 166.25 -104.285 166.25 -104.625 166.25 Z " fill="#D90E0E" transform="translate(372.625,63.75)"/>
<path d="M0 0 C1.01320312 0.763125 2.02640625 1.52625 3.0703125 2.3125 C20.21992833 14.71223654 39.61979174 21.8257675 60.1953125 26.3125 C61.09765625 26.52648437 62 26.74046875 62.9296875 26.9609375 C96.64456516 34.18555414 131.81480512 25.32750258 162.4453125 11.1875 C163.12440674 10.87514404 163.80350098 10.56278809 164.50317383 10.2409668 C167.92573914 8.60416196 170.99180912 6.81610722 174.0546875 4.5703125 C177.1953125 2.3125 177.1953125 2.3125 179.1953125 2.3125 C179.41866154 7.04444539 179.58147103 11.77329744 179.68969727 16.50927734 C179.73482134 18.11789397 179.79614379 19.72614414 179.87426758 21.33349609 C180.50899011 34.73319389 180.50899011 34.73319389 177.24414062 38.65820312 C174.9446783 40.1781867 172.73185341 41.25272967 170.1953125 42.3125 C160.92211825 50.26095222 155.81143779 60.36296752 154.1953125 72.3125 C154.05046919 75.83153566 154.05868096 79.34752385 154.06591797 82.86914062 C154.06416565 83.92042145 154.06241333 84.97170227 154.06060791 86.05484009 C154.05621179 89.52616026 154.05912124 92.99742932 154.0625 96.46875 C154.06182591 98.89286305 154.06085501 101.31697604 154.05960083 103.74108887 C154.05812655 108.82512047 154.06026828 113.9091345 154.06494141 118.99316406 C154.07061418 125.47774927 154.06737358 131.96229287 154.06136894 138.44687653 C154.05773523 143.45719713 154.05891519 148.46750807 154.06149673 153.47782898 C154.06215952 155.86659246 154.06136049 158.25535684 154.05901718 160.64411926 C153.13642213 190.42491151 153.13642213 190.42491151 166.1953125 216.3125 C163.10857657 217.21415144 160.35321258 217.43858052 157.14234066 217.44113445 C155.60439245 217.44597112 155.60439245 217.44597112 154.03537458 217.4509055 C152.34819841 217.4485826 152.34819841 217.4485826 150.62693787 217.44621277 C149.430717 217.44847833 148.23449613 217.45074388 147.00202614 217.45307809 C143.68021969 217.45831958 140.35846731 217.45906189 137.03666055 217.45788372 C133.45434262 217.45767983 129.87203279 217.46319747 126.28971863 217.46794128 C119.2693997 217.47625216 112.24908916 217.47899636 105.22876572 217.47955366 C99.52004835 217.4800288 93.81133375 217.48208343 88.10261726 217.48525429 C71.91273739 217.49406354 55.72286415 217.49867346 39.53298187 217.49792381 C38.65995674 217.49788386 37.78693161 217.4978439 36.88745117 217.49780273 C36.01335785 217.49776185 35.13926453 217.49772097 34.23868353 217.49767885 C20.08466466 217.49727273 5.93067244 217.50683298 -8.22333873 217.5209411 C-22.76112991 217.53531717 -37.29890811 217.54221055 -51.83670658 217.54134732 C-59.99658803 217.54101569 -68.15644157 217.54374794 -76.3163166 217.55452538 C-83.26693803 217.56364676 -90.21751892 217.56579234 -97.16814376 217.55901595 C-100.71175395 217.55575846 -104.25528643 217.55566597 -107.79888916 217.5643692 C-111.64843754 217.57372614 -115.49787341 217.56743769 -119.34742737 217.55973816 C-120.45659643 217.56488172 -121.5657655 217.57002529 -122.70854574 217.57532471 C-140.89554339 217.4951771 -156.85162108 212.02089978 -170.5546875 199.875 C-179.56812785 189.60969294 -183.92959045 179.92912827 -184.0078125 166.14453125 C-184.01351257 165.35084641 -184.01921265 164.55716156 -184.02508545 163.73942566 C-184.03451569 162.05587077 -184.04106157 160.37229758 -184.04492188 158.6887207 C-184.05448488 156.17819213 -184.08546448 153.66853478 -184.1171875 151.15820312 C-184.30317835 122.81878652 -177.12246272 95.77272718 -157.8046875 74.3125 C-156.97324219 73.36246094 -156.14179688 72.41242188 -155.28515625 71.43359375 C-140.64256067 54.9008592 -124.09978045 42.78338069 -104.71777344 32.35351562 C-102.91209825 31.37094811 -101.127109 30.35063783 -99.34375 29.328125 C-82.07528899 19.62674241 -19.11249939 -11.49944253 0 0 Z M-88.15625 58.78515625 C-89.46994293 60.91672897 -90.63542387 63.09859646 -91.8046875 65.3125 C-95.03202218 70.5106604 -98.23486456 75.18851344 -102.8046875 79.3125 C-103.7328125 80.240625 -104.6609375 81.16875 -105.6171875 82.125 C-112.89133193 88.29845152 -122.69951938 92.29008772 -131.6171875 95.4375 C-134.79712444 96.67740818 -135.70515219 97.18954462 -137.9296875 99.9375 C-140.09027951 108.27121206 -139.07711626 114.87258096 -134.8046875 122.3125 C-132.06307365 126.51630791 -129.53717279 128.58332268 -124.8046875 130.3125 C-118.36096983 131.02846863 -115.08751745 130.04155643 -109.8046875 126.3125 C-109.155 125.23355469 -109.155 125.23355469 -108.4921875 124.1328125 C-107.9353125 123.53210938 -107.3784375 122.93140625 -106.8046875 122.3125 C-103.94921875 122.3515625 -103.94921875 122.3515625 -100.6171875 122.9375 C-95.94973441 123.4416681 -93.1381041 123.63154477 -89.2421875 120.875 C-83.32185052 115.44177935 -81.44204371 109.57439765 -80.8828125 101.70703125 C-80.80233152 99.24028926 -80.78715372 96.78037897 -80.8046875 94.3125 C-80.12921875 94.00957031 -79.45375 93.70664062 -78.7578125 93.39453125 C-71.56863358 90.23020936 -71.56863358 90.23020936 -66.8046875 84.3125 C-65.50418618 76.44031651 -67.63279612 69.98528635 -72.04296875 63.48828125 C-75.4724397 59.10323016 -77.87525493 57.66330592 -83.2421875 56.6875 C-86.72521347 56.92594163 -86.72521347 56.92594163 -88.15625 58.78515625 Z " fill="#D90E0E" transform="translate(183.8046875,401.6875)"/>
<path d="M0 0 C1.25172501 -0.00426498 2.50345001 -0.00852997 3.79310608 -0.01292419 C5.17790225 -0.01257468 6.5626984 -0.01211315 7.94749451 -0.0115509 C9.40805141 -0.01454367 10.86860752 -0.01794647 12.3291626 -0.02172852 C16.29648417 -0.03056469 20.26378417 -0.03290658 24.23111463 -0.0335443 C26.71304819 -0.03425547 29.19497629 -0.03639115 31.67690849 -0.03904152 C40.34555789 -0.04829642 49.0141919 -0.05237657 57.68284607 -0.05158997 C65.74545917 -0.05099039 73.80800511 -0.0615182 81.87060124 -0.07733363 C88.80413296 -0.09044636 95.73764285 -0.09577224 102.67118686 -0.09513456 C106.80690332 -0.0948805 110.94256019 -0.09768013 115.07826424 -0.10831261 C118.97461156 -0.11805557 122.87084313 -0.11803067 126.76719475 -0.11079597 C128.18969264 -0.10975752 129.61219798 -0.11206861 131.03468323 -0.11815643 C154.16163434 -0.21064258 154.16163434 -0.21064258 162.89842224 8.13371277 C170.09266012 15.89591679 170.04821996 24.70205338 170.05955505 34.75382996 C170.06451996 35.81153595 170.06948486 36.86924194 170.07460022 37.95899963 C170.08917534 41.44953569 170.09601611 44.94002631 170.10154724 48.43058777 C170.1073025 50.86428325 170.11306019 53.29797872 170.11882019 55.73167419 C170.12931694 60.83248607 170.13516829 65.93328224 170.13865662 71.03410339 C170.14413861 77.55503207 170.16816622 84.07575167 170.19662857 90.59661484 C170.21529515 95.62393288 170.2204627 100.65120096 170.22199249 105.67855072 C170.22501043 108.08179619 170.2330098 110.48504097 170.24617767 112.88825226 C170.263322 116.25766709 170.26133726 119.62657614 170.25486755 122.99601746 C170.26408234 123.97921967 170.27329712 124.96242188 170.28279114 125.97541809 C170.22506319 135.62204084 168.30450205 144.64674398 161.33201599 151.72355652 C155.36644524 157.18198703 149.61917963 159.45116035 141.55027771 159.81291199 C140.46513791 159.86254247 140.46513791 159.86254247 139.3580761 159.91317558 C128.4028388 160.35355886 117.43048445 160.27733928 106.46873474 160.26652527 C104.02422577 160.26720117 101.57971687 160.26817357 99.13520813 160.26942444 C94.03023128 160.27089072 88.92527203 160.26878335 83.82029724 160.26408386 C77.3586084 160.25841776 70.8969614 160.26165262 64.43527412 160.26765633 C59.3884196 160.27131715 54.34157455 160.27009789 49.2947197 160.26752853 C46.91670095 160.26687283 44.53868127 160.26763874 42.1606636 160.27000809 C34.40567508 160.27603631 26.65278981 160.23235333 18.89842224 160.13371277 C17.69762779 160.12050743 16.49683334 160.10730209 15.25965118 160.09369659 C11.60177644 160.04361095 7.94568701 159.96392735 4.28855896 159.87541199 C2.62482333 159.85503467 2.62482333 159.85503467 0.92747688 159.83424568 C-8.57002952 159.54845854 -16.38268477 157.15800999 -23.10157776 150.13371277 C-26.42026625 144.52162166 -29.22190113 139.10683824 -29.23529053 132.50563049 C-29.23955551 131.55529938 -29.2438205 130.60496826 -29.24821472 129.62583923 C-29.24776154 128.58478027 -29.24730835 127.54372131 -29.24684143 126.47111511 C-29.25020004 125.37322662 -29.25355865 124.27533813 -29.25701904 123.1441803 C-29.26654285 119.50265887 -29.26847315 115.86118339 -29.26954651 112.21965027 C-29.27275906 109.68959026 -29.27612313 107.15953044 -29.27963257 104.62947083 C-29.28562809 99.31821691 -29.28751491 94.00698014 -29.28688049 88.69572449 C-29.28628112 82.57293069 -29.2968046 76.4502254 -29.31262416 70.32745397 C-29.32732729 64.42481394 -29.33086708 58.52220065 -29.33027077 52.61954117 C-29.33144893 50.11499801 -29.33586148 47.61045417 -29.34360313 45.1059227 C-29.35343647 41.59476724 -29.3505112 38.08383696 -29.34449768 34.57267761 C-29.35011719 33.54376404 -29.35573669 32.51485046 -29.36152649 31.45475769 C-29.31856314 21.54739976 -28.40395229 14.39875941 -21.39454651 7.08293152 C-15.19345625 1.8114766 -7.97732245 0.01228545 0 0 Z M78.89842224 16.13371277 C81.45534195 18.15794087 84.0975037 19.85219938 86.89842224 21.50871277 C92.12024304 24.77356176 95.3144766 28.57703343 97.35545349 34.49699402 C98.95219022 42.25093138 99.64755953 52.6189625 95.27732849 59.53215027 C89.40847776 66.34866245 81.19811296 70.28291994 72.32420349 71.48136902 C62.97489652 71.81894211 54.98222601 69.17025304 47.81248474 63.15324402 C42.98181535 58.05639488 40.79460641 51.10235064 40.89842224 44.13371277 C41.66417521 35.58736269 44.84632809 29.84571917 50.21092224 23.32121277 C53.63263245 20.53609981 56.71003807 19.48251445 60.89842224 18.13371277 C60.89842224 17.80371277 60.89842224 17.47371277 60.89842224 17.13371277 C50.3184617 17.99738302 42.80463825 24.35513263 35.89842224 32.13371277 C31.07846128 40.14818976 28.72199893 47.66700156 28.83592224 57.00871277 C28.84494568 57.97550964 28.85396912 58.94230652 28.86326599 59.93840027 C28.87486755 60.66285339 28.88646912 61.38730652 28.89842224 62.13371277 C28.18557068 62.47402527 27.47271912 62.81433777 26.73826599 63.16496277 C15.62357678 68.78962379 10.26526482 75.51285895 5.89842224 87.13371277 C4.70728362 91.26732281 4.75153729 95.29999942 4.77342224 99.57121277 C4.76955505 100.32209167 4.76568787 101.07297058 4.76170349 101.84660339 C4.76855618 105.74235594 4.94540468 109.32920617 5.89842224 113.13371277 C6.22842224 113.13371277 6.55842224 113.13371277 6.89842224 113.13371277 C6.93709412 111.79179871 6.93709412 111.79179871 6.97654724 110.42277527 C7.40407677 101.308623 8.32694902 93.59805429 14.14842224 86.32121277 C15.05592224 85.59933777 15.96342224 84.87746277 16.89842224 84.13371277 C17.46303162 83.68125183 18.02764099 83.22879089 18.60935974 82.76261902 C24.02853112 78.85860372 29.26212959 77.80284348 35.89842224 78.13371277 C46.74427987 80.22468532 53.64503949 87.03719749 59.77342224 95.82121277 C62.59450451 104.12773278 62.85907829 112.07707346 59.05857849 120.05168152 C55.1799003 127.01240702 49.84795375 130.59778385 42.52342224 133.44621277 C33.99615246 135.06345359 27.02989905 134.0402832 18.89842224 131.13371277 C24.21916798 137.51860766 32.24710831 140.6074072 40.45701599 141.37199402 C49.66425781 141.60935846 57.8761073 139.70626773 66.09373474 135.49699402 C68.89842224 134.13371277 68.89842224 134.13371277 71.89842224 134.13371277 C75.17611411 135.5646944 78.36446527 137.1466468 81.57420349 138.72355652 C90.34767893 142.4453246 100.49803263 142.17338528 109.46092224 139.20011902 C113.62910622 137.37653853 117.26337762 134.84682578 120.89842224 132.13371277 C120.23842224 131.80371277 119.57842224 131.47371277 118.89842224 131.13371277 C117.78467224 131.60808777 116.67092224 132.08246277 115.52342224 132.57121277 C108.28575134 135.40334486 100.71061823 135.10407449 93.46092224 132.44621277 C89.45864674 130.62757878 86.73183621 128.55047667 83.89842224 125.13371277 C83.17654724 124.32933777 82.45467224 123.52496277 81.71092224 122.69621277 C77.13264862 116.2234811 77.00302234 108.78042793 77.89842224 101.13371277 C79.39731352 96.7638682 81.25330434 92.75956699 84.56639099 89.48527527 C86.13240286 88.21257428 86.13240286 88.21257428 85.89842224 86.13371277 C86.44240662 85.86816589 86.98639099 85.60261902 87.54685974 85.32902527 C89.23991303 84.46843672 90.90963505 83.56138411 92.56248474 82.62590027 C99.1248966 79.0416806 104.39022377 76.70122753 111.89842224 78.13371277 C118.86847201 80.19721434 125.51455705 83.94564566 129.18357849 90.39152527 C132.42941521 97.81390457 132.95510733 105.12694403 132.89842224 113.13371277 C136.69389392 109.33824109 136.52030187 103.29562874 136.89842224 98.13371277 C136.16348611 85.9114054 131.02559853 76.94255364 122.32420349 68.62980652 C119.76913789 66.38322653 117.868795 65.12476869 114.58592224 64.13371277 C111.89842224 62.13371277 111.89842224 62.13371277 111.44139099 59.44621277 C111.32602335 57.17105561 111.23074919 54.89481788 111.15232849 52.61808777 C110.34245059 41.50407102 103.94537234 31.36907071 96.03123474 23.77433777 C91.26423426 20.10741432 85.0190353 16.13371277 78.89842224 16.13371277 Z M50.89842224 56.13371277 C50.10391029 58.21189438 50.10391029 58.21189438 49.89842224 60.13371277 C53.77212922 61.62719016 56.16874436 60.53446863 59.96092224 59.13371277 C69.55087726 56.02665335 76.77912901 57.38828876 85.89842224 61.13371277 C86.88842224 61.13371277 87.87842224 61.13371277 88.89842224 61.13371277 C89.55842224 59.48371277 90.21842224 57.83371277 90.89842224 56.13371277 C77.42017414 49.41513483 63.83200149 45.46866565 50.89842224 56.13371277 Z M34.89842224 85.13371277 C34.80054855 95.74322059 37.575618 105.68410721 44.94920349 113.47355652 C48.02003651 116.08899546 51.18925581 117.57195848 54.89842224 119.13371277 C55.55842224 118.47371277 56.21842224 117.81371277 56.89842224 117.13371277 C56.97114786 114.57911063 56.97114786 114.57911063 55.89842224 112.13371277 C53.42206212 110.75904652 53.42206212 110.75904652 50.89842224 110.13371277 C50.89842224 109.47371277 50.89842224 108.81371277 50.89842224 108.13371277 C50.23842224 108.13371277 49.57842224 108.13371277 48.89842224 108.13371277 C48.89842224 107.47371277 48.89842224 106.81371277 48.89842224 106.13371277 C48.23842224 106.13371277 47.57842224 106.13371277 46.89842224 106.13371277 C45.23934087 101.39561551 43.96243558 96.62926369 42.77342224 91.75871277 C42.59166443 91.02265808 42.40990662 90.28660339 42.22264099 89.52824402 C41.77906663 87.73060054 41.33843958 85.93223023 40.89842224 84.13371277 C37.6091182 83.76685579 37.6091182 83.76685579 34.89842224 85.13371277 Z M99.89842224 84.13371277 C98.12163304 85.91050197 98.47063592 88.72088895 98.21092224 91.13371277 C96.79115203 100.66496424 92.65076126 105.95604823 85.24607849 111.78215027 C83.60405255 113.16244508 83.60405255 113.16244508 83.46092224 116.00871277 C83.67748474 117.06058777 83.67748474 117.06058777 83.89842224 118.13371277 C86.83762983 119.4978405 86.83762983 119.4978405 89.27342224 118.00871277 C92.16406479 115.94396809 94.48162104 113.73642176 96.89842224 111.13371277 C97.57904724 110.43246277 98.25967224 109.73121277 98.96092224 109.00871277 C103.73897715 101.91869581 105.56987464 94.59401301 104.89842224 86.13371277 C104.56842224 85.47371277 104.23842224 84.81371277 103.89842224 84.13371277 C102.57842224 84.13371277 101.25842224 84.13371277 99.89842224 84.13371277 Z " fill="#D90E0E" transform="translate(384.10157775878906,452.8662872314453)"/>
<path d="M0 0 C4.3494455 3.2586967 4.3494455 3.2586967 6.1953125 5.06640625 C6.1953125 5.72640625 6.1953125 6.38640625 6.1953125 7.06640625 C6.8553125 7.06640625 7.5153125 7.06640625 8.1953125 7.06640625 C15.8215952 15.83478925 21.35682599 24.71246023 24.1953125 36.06640625 C24.47133301 37.15272339 24.47133301 37.15272339 24.75292969 38.26098633 C26.78603574 47.51090426 26.41586339 56.84034108 26.3203125 66.25390625 C26.31026011 67.98632294 26.30113826 69.71874529 26.29296875 71.45117188 C26.27113999 75.65639211 26.23673549 79.86133525 26.1953125 84.06640625 C22.22600261 84.09106506 18.25672216 84.10924648 14.28735352 84.12133789 C12.93610864 84.12637682 11.58486924 84.13320802 10.23364258 84.1418457 C8.29510816 84.15393044 6.3565345 84.15910453 4.41796875 84.1640625 C2.66625366 84.17191772 2.66625366 84.17191772 0.87915039 84.17993164 C-1.8046875 84.06640625 -1.8046875 84.06640625 -2.8046875 83.06640625 C-2.92730479 80.75869578 -2.98457945 78.44747594 -3.015625 76.13671875 C-3.04374418 74.68618761 -3.07240882 73.23566697 -3.1015625 71.78515625 C-3.14244381 69.50358958 -3.1793267 67.22220817 -3.20605469 64.94042969 C-3.38465292 50.90507206 -4.72996923 38.32127565 -14.328125 27.3203125 C-24.04242382 18.19834898 -35.42969708 15.57465615 -48.25390625 15.78515625 C-57.48543021 16.17541302 -66.15591485 18.4176336 -72.8046875 25.06640625 C-73.4646875 25.06640625 -74.1246875 25.06640625 -74.8046875 25.06640625 C-74.8046875 25.72640625 -74.8046875 26.38640625 -74.8046875 27.06640625 C-75.4646875 27.06640625 -76.1246875 27.06640625 -76.8046875 27.06640625 C-77.0728125 27.61039062 -77.3409375 28.154375 -77.6171875 28.71484375 C-78.45948165 30.38280782 -79.33848389 32.03246168 -80.2421875 33.66796875 C-87.25185533 47.231676 -87.07363721 61.4377315 -86.81982422 76.42578125 C-86.79879639 77.70388672 -86.79879639 77.70388672 -86.77734375 79.0078125 C-86.75039429 80.14778687 -86.75039429 80.14778687 -86.72290039 81.31079102 C-86.8046875 83.06640625 -86.8046875 83.06640625 -87.8046875 84.06640625 C-89.71927032 84.16612411 -91.63751067 84.19721214 -93.5546875 84.19921875 C-94.72 84.20050781 -95.8853125 84.20179688 -97.0859375 84.203125 C-98.313125 84.19925781 -99.5403125 84.19539063 -100.8046875 84.19140625 C-102.64546875 84.19720703 -102.64546875 84.19720703 -104.5234375 84.203125 C-105.68875 84.20183594 -106.8540625 84.20054687 -108.0546875 84.19921875 C-109.13234375 84.19809082 -110.21 84.19696289 -111.3203125 84.19580078 C-113.8046875 84.06640625 -113.8046875 84.06640625 -114.8046875 83.06640625 C-115.09385808 78.07514682 -115.05062997 73.06555738 -115.0546875 68.06640625 C-115.05536224 67.33466187 -115.05603699 66.60291748 -115.05673218 65.84899902 C-115.02183973 42.15735204 -110.86466546 23.55231807 -94.0546875 5.87890625 C-67.61551172 -19.55114069 -29.50347288 -20.34013799 0 0 Z " fill="#D90E0E" transform="translate(498.8046875,354.93359375)"/>
<path d="M0 0 C3.44840975 1.90763092 4.67121442 3.12968524 6.0625 6.8125 C5.97616087 11.21579583 4.40980384 13.34878206 2 17 C1.34 17 0.68 17 0 17 C0 17.66 0 18.32 0 19 C-1.65 19.33 -3.3 19.66 -5 20 C-5 19.34 -5 18.68 -5 18 C-5.86625 17.690625 -5.86625 17.690625 -6.75 17.375 C-9.97708737 15.40289105 -11.28965523 13.35734344 -13 10 C-13 6.22720352 -12.8279979 4.0267174 -10.4375 1.0625 C-6.9362275 -0.46369571 -3.71299298 -0.65566741 0 0 Z " fill="#D90E0E" transform="translate(457,531)"/>
<path d="" fill="#D90E0E" transform="translate(0,0)"/>
<path d="" fill="#D90E0E" transform="translate(0,0)"/>
</svg>
