<?xml version="1.0" encoding="UTF-8"?>
<svg version="1.1" xmlns="http://www.w3.org/2000/svg" width="512" height="512">
<path d="M0 0 C0.8132373 0.19335938 1.62647461 0.38671875 2.46435547 0.5859375 C45.40377358 11.06014903 83.63053239 37.35193265 107.25195312 74.99511719 C110.00591311 79.57385554 112.54618275 84.25468948 115 89 C115.31952637 89.61311035 115.63905273 90.2262207 115.96826172 90.85791016 C136.22906467 130.28863122 138.37685516 178.08396446 125 220 C119.54707511 236.12897283 111.47790279 250.92567067 102 265 C100.68 266.98 99.36 268.96 98 271 C104.6 277.6 111.2 284.2 118 291 C122.95 289.02 122.95 289.02 128 287 C137.44761913 287 143.3935912 290.08459557 150.02493501 296.62370479 C150.61726859 297.22273054 151.20960217 297.82175628 151.81988525 298.43893433 C152.4689508 299.0833199 153.11801635 299.72770548 153.78675056 300.39161789 C155.94866215 302.54161255 158.09974958 304.70211162 160.25097656 306.86279297 C161.80315144 308.41090074 163.35596336 309.95837 164.90936279 311.50524902 C169.11853346 315.70075813 173.3181772 319.90568354 177.51575947 324.11278296 C181.91143001 328.51605465 186.31442209 332.91199541 190.71624756 337.30911255 C198.5787572 345.16581725 206.43368516 353.03006016 214.28565404 360.89729704 C221.40105899 368.02610906 228.52429928 375.1470124 235.65332031 382.26220703 C243.93979754 390.53262046 252.22120258 398.80806329 260.49521995 407.09094346 C264.87231929 411.47271948 269.25141943 415.8524442 273.63581085 420.2269249 C277.75644659 424.33889573 281.86967618 428.45813414 285.97730255 432.58309937 C287.48601108 434.09577496 288.99727897 435.60590285 290.51127625 437.11328506 C292.5772175 439.1710301 294.63369848 441.23779123 296.68804932 443.30709839 C297.28930578 443.90166269 297.89056225 444.49622699 298.51003861 445.1088084 C303.63999485 450.31146483 306.4284899 454.93208585 306.4375 462.4375 C306.45683594 463.50871094 306.47617187 464.57992188 306.49609375 465.68359375 C305.38263812 473.12708848 300.40161798 478.0474672 295.2578125 483.140625 C294.61182098 483.78948669 293.96582947 484.43834839 293.30026245 485.10687256 C291.9406747 486.46849087 290.57733484 487.826372 289.21044922 489.18066406 C287.1276104 491.24740977 285.06129872 493.32971253 282.99609375 495.4140625 C281.66762768 496.74054648 280.33823146 498.06609971 279.0078125 499.390625 C278.39511505 500.00939514 277.7824176 500.62816528 277.15115356 501.26568604 C271.87636383 506.45553712 267.24173048 509.42623021 259.625 509.5 C258.56539063 509.5309375 257.50578125 509.561875 256.4140625 509.59375 C248.85965661 508.27994028 243.32915222 502.76989329 238.0978241 497.47877502 C237.45198767 496.83761857 236.80615125 496.19646212 236.14074403 495.53587669 C233.99577099 493.4027933 231.86159149 491.2592403 229.72729492 489.11547852 C228.18482405 487.57707592 226.64171638 486.03931157 225.09802246 484.50213623 C220.91990916 480.33766935 216.75130486 476.16380509 212.58477569 471.9877522 C208.21981074 467.61517961 203.84751694 463.24994529 199.47639465 458.88352966 C192.14007172 451.55265988 184.81008652 444.21549774 177.48364258 436.87475586 C169.0140679 428.38884341 160.53374735 419.91383267 152.0477497 411.4443422 C144.75799494 404.16820025 137.47410133 396.8862297 130.19507676 389.59935325 C125.84929107 385.24889152 121.50150622 380.90047981 117.14842796 376.55731392 C113.05814758 372.47569826 108.97527351 368.38681588 104.89800262 364.29220581 C103.40058107 362.79081736 101.90060043 361.29197626 100.39789009 359.79588127 C98.34732822 357.75351614 96.30622905 355.70213575 94.26725769 353.64820862 C93.67057429 353.05821738 93.07389089 352.46822615 92.45912617 351.86035639 C87.37886838 346.70756398 84.56957993 341.64498564 83.91796875 334.37890625 C84.03587574 330.95960351 85.04690991 328.10235098 86.30859375 324.9453125 C87.16744884 322.87296105 87.16744884 322.87296105 87 320 C85.21813105 317.80063172 85.21813105 317.80063172 82.84375 315.55078125 C81.98652344 314.70322266 81.12929688 313.85566406 80.24609375 312.98242188 C79.33988281 312.10134766 78.43367188 311.22027344 77.5 310.3125 C76.59378906 309.41982422 75.68757813 308.52714844 74.75390625 307.60742188 C72.50914832 305.39810749 70.25770002 303.19607467 68 301 C67.41702148 301.38961914 66.83404297 301.77923828 66.23339844 302.18066406 C38.53890506 320.6702415 7.91414265 334.9683911 -26 336 C-26.7317041 336.02578125 -27.4634082 336.0515625 -28.21728516 336.078125 C-76.40493468 337.57144747 -120.83679419 321.01245661 -156 288 C-177.150632 267.42309742 -192.02707329 241.66660869 -200.3125 213.4375 C-200.65812988 212.27202637 -200.65812988 212.27202637 -201.01074219 211.08300781 C-205.08497448 196.38346489 -206.53065797 181.76548925 -206.375 166.5625 C-206.37067963 165.75606049 -206.36635925 164.94962097 -206.36190796 164.1187439 C-206.28714697 152.19547134 -205.83194118 140.63158516 -203 129 C-202.83371094 128.27474121 -202.66742188 127.54948242 -202.49609375 126.80224609 C-197.06104647 103.51709446 -186.47568516 81.94543175 -172 63 C-170.95585937 61.61748047 -170.95585937 61.61748047 -169.890625 60.20703125 C-143.45126391 26.56145332 -104.05898035 3.78669754 -61.6640625 -2.34375 C-41.68380494 -4.65561806 -19.57017082 -4.82372596 0 0 Z M-133.58984375 80.734375 C-146.29049154 95.26086631 -155.17835737 112.21801975 -160.75 130.625 C-160.94899902 131.28121338 -161.14799805 131.93742676 -161.35302734 132.61352539 C-164.51808074 143.67491156 -165.38989656 154.58789102 -165.375 166.0625 C-165.37478851 166.74086914 -165.37457703 167.41923828 -165.37435913 168.11816406 C-165.33910581 179.49011776 -164.2132685 190.06577526 -161 201 C-160.49146484 202.8871875 -160.49146484 202.8871875 -159.97265625 204.8125 C-153.9708788 224.97505486 -142.29645616 241.82614401 -128 257 C-127.38898438 257.67546875 -126.77796875 258.3509375 -126.1484375 259.046875 C-105.08814338 281.45144321 -72.58425199 294.21811472 -42.1953125 295.203125 C-9.71610493 295.71021396 21.07468407 286.32717321 46 265 C47.00289062 264.15953125 48.00578125 263.3190625 49.0390625 262.453125 C61.90564135 251.37610251 71.33870593 238.06624695 79 223 C79.49113281 222.04609375 79.98226562 221.0921875 80.48828125 220.109375 C95.26859888 189.5420308 95.7058257 153.95903052 84.78613281 122.13085938 C80.65270625 110.92696279 75.08279918 100.61636963 68 91 C67.11441406 89.77990234 67.11441406 89.77990234 66.2109375 88.53515625 C48.21903545 64.91599972 23.56889921 48.81892715 -5 41 C-6.77890625 40.49146484 -6.77890625 40.49146484 -8.59375 39.97265625 C-54.77150786 29.08072858 -101.74453125 47.11187311 -133.58984375 80.734375 Z " fill="#000000" transform="translate(206,3)"/>
</svg>
